<svg width="32" height="32" viewBox="0 0 32 32" fill="none" xmlns="http://www.w3.org/2000/svg">
<g clip-path="url(#clip0_1250_7128)">
<path d="M29.8376 5.76613C29.4743 5.33011 29.0194 4.97944 28.5053 4.73901C27.9912 4.49859 27.4305 4.37431 26.8629 4.375H5.97925L5.925 3.92162C5.81398 2.97925 5.36104 2.11036 4.65205 1.4797C3.94306 0.849038 3.02731 0.500441 2.07842 0.5L1.79167 0.5C1.4491 0.5 1.12055 0.636086 0.87832 0.87832C0.636086 1.12055 0.5 1.4491 0.5 1.79167C0.5 2.13424 0.636086 2.46278 0.87832 2.70501C1.12055 2.94725 1.4491 3.08333 1.79167 3.08333H2.07842C2.39479 3.08337 2.70014 3.19953 2.93656 3.40976C3.17298 3.61999 3.32403 3.90968 3.36104 4.22387L5.13837 19.3364C5.32289 20.9081 6.07803 22.3573 7.26046 23.409C8.44289 24.4607 9.97031 25.0417 11.5528 25.0417H25.0417C25.3842 25.0417 25.7128 24.9056 25.955 24.6633C26.1972 24.4211 26.3333 24.0926 26.3333 23.75C26.3333 23.4074 26.1972 23.0789 25.955 22.8367C25.7128 22.5944 25.3842 22.4583 25.0417 22.4583H11.5528C10.7533 22.4561 9.97411 22.2066 9.322 21.7441C8.66988 21.2816 8.17678 20.6287 7.91029 19.875H23.307C24.8212 19.8751 26.2873 19.3431 27.4491 18.3721C28.6109 17.401 29.3946 16.0526 29.6632 14.5624L30.6772 8.93846C30.7784 8.38047 30.7557 7.80704 30.6106 7.25882C30.4655 6.7106 30.2016 6.201 29.8376 5.76613ZM28.1417 8.47992L27.1264 14.1038C26.9651 14.999 26.4941 15.8088 25.7958 16.3916C25.0975 16.9744 24.2165 17.293 23.307 17.2917H7.49954L6.28408 6.95833H26.8629C27.0527 6.9572 27.2403 6.99788 27.4126 7.0775C27.5848 7.15711 27.7374 7.27369 27.8595 7.41895C27.9815 7.56421 28.0701 7.73459 28.1189 7.91796C28.1677 8.10133 28.1754 8.2932 28.1417 8.47992Z" fill="white"/>
<path d="M9.54232 31.5002C10.9691 31.5002 12.1257 30.3436 12.1257 28.9168C12.1257 27.4901 10.9691 26.3335 9.54232 26.3335C8.11558 26.3335 6.95898 27.4901 6.95898 28.9168C6.95898 30.3436 8.11558 31.5002 9.54232 31.5002Z" fill="white"/>
<path d="M22.4583 31.4999C23.8851 31.4999 25.0417 30.3433 25.0417 28.9166C25.0417 27.4898 23.8851 26.3333 22.4583 26.3333C21.0316 26.3333 19.875 27.4898 19.875 28.9166C19.875 30.3433 21.0316 31.4999 22.4583 31.4999Z" fill="white"/>
</g>
<defs>
<clipPath id="clip0_1250_7128">
<rect width="31" height="31" fill="white" transform="translate(0.5 0.5)"/>
</clipPath>
</defs>
</svg>
