<svg width="193" height="43" viewBox="0 0 193 43" fill="none" xmlns="http://www.w3.org/2000/svg">
<path d="M13.9415 5.368H5.9495L5.9735 19H2.1095V2.2H13.9655L13.9415 5.368ZM29.3441 15.88V19H16.3361V2.2H29.0321V5.32H20.2001V8.968H28.0001V11.992H20.2001V15.88H29.3441ZM47.7965 2.2V19H43.9325V5.368H36.3485V19H32.4845V2.2H47.7965ZM63.3371 15.4H55.5371L54.0491 19H50.0651L57.5531 2.2H61.3931L68.9051 19H64.8251L63.3371 15.4ZM62.1131 12.448L59.4491 6.016L56.7851 12.448H62.1131ZM78.4049 2.2C79.8929 2.2 81.1809 2.448 82.2689 2.944C83.3729 3.44 84.2209 4.144 84.8129 5.056C85.4049 5.968 85.7009 7.048 85.7009 8.296C85.7009 9.528 85.4049 10.608 84.8129 11.536C84.2209 12.448 83.3729 13.152 82.2689 13.648C81.1809 14.128 79.8929 14.368 78.4049 14.368H75.0209V19H71.1329V2.2H78.4049ZM78.1889 11.2C79.3569 11.2 80.2449 10.952 80.8529 10.456C81.4609 9.944 81.7649 9.224 81.7649 8.296C81.7649 7.352 81.4609 6.632 80.8529 6.136C80.2449 5.624 79.3569 5.368 78.1889 5.368H75.0209V11.2H78.1889ZM98.798 15.4H90.998L89.51 19H85.526L93.014 2.2H96.854L104.366 19H100.286L98.798 15.4ZM97.574 12.448L94.91 6.016L92.246 12.448H97.574ZM121.882 19L121.858 8.944L116.914 17.224H115.186L110.242 9.136V19H106.594V2.2H109.81L116.098 12.64L122.29 2.2H125.506L125.53 19H121.882ZM141.079 15.4H133.279L131.791 19H127.807L135.295 2.2H139.135L146.647 19H142.567L141.079 15.4ZM139.855 12.448L137.191 6.016L134.527 12.448H139.855ZM155.379 12.232H152.691V19H148.827V2.2H152.691V8.992H155.475L159.891 2.2H163.995L158.499 10.312L164.163 19H159.747L155.379 12.232ZM173.858 19.288C172.146 19.288 170.594 18.92 169.202 18.184C167.826 17.432 166.738 16.4 165.938 15.088C165.154 13.76 164.762 12.264 164.762 10.6C164.762 8.936 165.154 7.448 165.938 6.136C166.738 4.808 167.826 3.776 169.202 3.04C170.594 2.288 172.154 1.912 173.882 1.912C175.338 1.912 176.65 2.168 177.818 2.68C179.002 3.192 179.994 3.928 180.794 4.888L178.298 7.192C177.162 5.88 175.754 5.224 174.074 5.224C173.034 5.224 172.106 5.456 171.29 5.92C170.474 6.368 169.834 7 169.37 7.816C168.922 8.632 168.698 9.56 168.698 10.6C168.698 11.64 168.922 12.568 169.37 13.384C169.834 14.2 170.474 14.84 171.29 15.304C172.106 15.752 173.034 15.976 174.074 15.976C175.754 15.976 177.162 15.312 178.298 13.984L180.794 16.288C179.994 17.264 179.002 18.008 177.818 18.52C176.634 19.032 175.314 19.288 173.858 19.288ZM186.899 0.876799C187.85 0.876799 188.709 1.0976 189.477 1.5392C190.255 1.9808 190.864 2.5904 191.306 3.368C191.747 4.136 191.968 4.9904 191.968 5.9312C191.968 6.872 191.743 7.736 191.291 8.5232C190.84 9.3008 190.226 9.9152 189.448 10.3664C188.671 10.8176 187.811 11.0432 186.871 11.0432C185.93 11.0432 185.071 10.8176 184.293 10.3664C183.525 9.9152 182.915 9.3008 182.464 8.5232C182.023 7.7456 181.802 6.8912 181.802 5.96C181.802 5.0288 182.023 4.1744 182.464 3.3968C182.915 2.6192 183.53 2.0048 184.307 1.5536C185.085 1.1024 185.949 0.876799 186.899 0.876799ZM186.871 10.1072C187.639 10.1072 188.335 9.9248 188.959 9.56C189.592 9.1856 190.087 8.6816 190.442 8.048C190.807 7.4048 190.989 6.6992 190.989 5.9312C190.989 5.1536 190.811 4.4528 190.456 3.8288C190.111 3.2048 189.626 2.7152 189.002 2.36C188.378 1.9952 187.677 1.8128 186.899 1.8128C186.122 1.8128 185.421 1.9952 184.797 2.36C184.173 2.7248 183.683 3.224 183.328 3.8576C182.973 4.4912 182.795 5.192 182.795 5.96C182.795 6.728 182.973 7.4288 183.328 8.0624C183.683 8.696 184.168 9.1952 184.783 9.56C185.407 9.9248 186.103 10.1072 186.871 10.1072ZM189.549 5.1536C189.549 5.5568 189.458 5.9072 189.275 6.2048C189.103 6.4928 188.843 6.7184 188.498 6.8816L189.722 8.7536H188.224L187.173 7.1408H187.115H186.179V8.7536H184.682V3.1664H187.115C187.874 3.1664 188.469 3.3488 188.901 3.7136C189.333 4.0688 189.549 4.5488 189.549 5.1536ZM187.015 6.0176C187.351 6.0176 187.61 5.9456 187.792 5.8016C187.984 5.648 188.08 5.432 188.08 5.1536C188.08 4.8752 187.984 4.6592 187.792 4.5056C187.61 4.352 187.351 4.2752 187.015 4.2752H186.165V6.0176H187.015Z" fill="#E86D00"/>
<path d="M11.4055 40.944C9.2295 40.944 7.3815 40.656 5.8615 40.08C4.3575 39.504 3.2135 38.672 2.4295 37.584C1.6455 36.48 1.2535 35.136 1.2535 33.552C1.2535 31.968 1.6455 30.632 2.4295 29.544C3.2135 28.44 4.3575 27.6 5.8615 27.024C7.3815 26.448 9.2295 26.16 11.4055 26.16C11.4375 26.16 11.5255 26.16 11.6695 26.16C11.8295 26.16 11.9815 26.16 12.1255 26.16C12.2855 26.16 12.3735 26.16 12.3895 26.16C14.5495 26.16 16.3735 26.448 17.8615 27.024C19.3655 27.6 20.5015 28.44 21.2695 29.544C22.0375 30.648 22.4215 31.984 22.4215 33.552C22.4215 35.104 22.0375 36.44 21.2695 37.56C20.5175 38.664 19.4055 39.504 17.9335 40.08C16.4775 40.656 14.6935 40.944 12.5815 40.944C12.5335 40.944 12.4215 40.944 12.2455 40.944C12.0695 40.944 11.8935 40.944 11.7175 40.944C11.5575 40.944 11.4535 40.944 11.4055 40.944ZM11.7655 37.944C11.8135 37.944 11.8775 37.944 11.9575 37.944C12.0375 37.944 12.0935 37.944 12.1255 37.944C13.5975 37.944 14.8135 37.784 15.7735 37.464C16.7495 37.128 17.4775 36.64 17.9575 36C18.4375 35.344 18.6775 34.52 18.6775 33.528C18.6775 32.536 18.4295 31.72 17.9335 31.08C17.4375 30.44 16.7095 29.968 15.7495 29.664C14.8055 29.344 13.6135 29.184 12.1735 29.184C12.1415 29.184 12.0775 29.184 11.9815 29.184C11.9015 29.184 11.8295 29.184 11.7655 29.184C10.2455 29.184 8.9895 29.336 7.9975 29.64C7.0055 29.944 6.2615 30.424 5.7655 31.08C5.2695 31.72 5.0215 32.544 5.0215 33.552C5.0215 34.56 5.2855 35.392 5.8135 36.048C6.3415 36.688 7.1015 37.168 8.0935 37.488C9.1015 37.792 10.3255 37.944 11.7655 37.944ZM10.0615 42.744V24.48H13.6375V42.744H10.0615ZM33.3702 42.288C32.0422 42.288 30.8102 42.072 29.6742 41.64C28.5542 41.208 27.5782 40.6 26.7462 39.816C25.9302 39.032 25.2902 38.112 24.8262 37.056C24.3782 36 24.1542 34.848 24.1542 33.6C24.1542 32.352 24.3782 31.2 24.8262 30.144C25.2902 29.088 25.9382 28.168 26.7702 27.384C27.6022 26.6 28.5782 25.992 29.6982 25.56C30.8182 25.128 32.0342 24.912 33.3462 24.912C34.6742 24.912 35.8902 25.128 36.9942 25.56C38.1142 25.992 39.0822 26.6 39.8982 27.384C40.7302 28.168 41.3782 29.088 41.8422 30.144C42.3062 31.184 42.5382 32.336 42.5382 33.6C42.5382 34.848 42.3062 36.008 41.8422 37.08C41.3782 38.136 40.7302 39.056 39.8982 39.84C39.0822 40.608 38.1142 41.208 36.9942 41.64C35.8902 42.072 34.6822 42.288 33.3702 42.288ZM33.3462 38.976C34.0982 38.976 34.7862 38.848 35.4102 38.592C36.0502 38.336 36.6102 37.968 37.0902 37.488C37.5702 37.008 37.9382 36.44 38.1942 35.784C38.4662 35.128 38.6022 34.4 38.6022 33.6C38.6022 32.8 38.4662 32.072 38.1942 31.416C37.9382 30.76 37.5702 30.192 37.0902 29.712C36.6262 29.232 36.0742 28.864 35.4342 28.608C34.7942 28.352 34.0982 28.224 33.3462 28.224C32.5942 28.224 31.8982 28.352 31.2582 28.608C30.6342 28.864 30.0822 29.232 29.6022 29.712C29.1222 30.192 28.7462 30.76 28.4742 31.416C28.2182 32.072 28.0902 32.8 28.0902 33.6C28.0902 34.384 28.2182 35.112 28.4742 35.784C28.7462 36.44 29.1142 37.008 29.5782 37.488C30.0582 37.968 30.6182 38.336 31.2582 38.592C31.8982 38.848 32.5942 38.976 33.3462 38.976ZM45.5333 42V25.2H52.8053C54.3093 25.2 55.6053 25.448 56.6933 25.944C57.7813 26.424 58.6213 27.12 59.2133 28.032C59.8053 28.944 60.1013 30.032 60.1013 31.296C60.1013 32.544 59.8053 33.624 59.2133 34.536C58.6213 35.448 57.7813 36.152 56.6933 36.648C55.6053 37.128 54.3093 37.368 52.8053 37.368H47.6933L49.4213 35.616V42H45.5333ZM49.4213 36.048L47.6933 34.2H52.5893C53.7893 34.2 54.6853 33.944 55.2773 33.432C55.8693 32.92 56.1653 32.208 56.1653 31.296C56.1653 30.368 55.8693 29.648 55.2773 29.136C54.6853 28.624 53.7893 28.368 52.5893 28.368H47.6933L49.4213 26.52V36.048ZM65.8448 42V27.48L66.7328 28.368H60.4928V25.2H75.0608V28.368H68.8208L69.6848 27.48V42H65.8448ZM81.0781 31.968H89.1661V34.992H81.0781V31.968ZM81.3661 38.88H90.5101V42H77.5021V25.2H90.1981V28.32H81.3661V38.88Z" fill="url(#paint0_linear_5307_4802)"/>
<defs>
<linearGradient id="paint0_linear_5307_4802" x1="48.0176" y1="25" x2="47.7016" y2="54.3134" gradientUnits="userSpaceOnUse">
<stop stop-color="#878786"/>
<stop offset="0.333333" stop-color="#B1B2B3"/>
<stop offset="0.666697" stop-color="#414141"/>
<stop offset="1" stop-color="#888887"/>
</linearGradient>
</defs>
</svg>
